<mxfile host="65bd71144e" modified="2022-07-07T08:45:00.606Z" agent="5.0 (Macintosh; Intel Mac OS X 10_15_7) AppleWebKit/537.36 (KHTML, like Gecko) Code/1.68.1 Chrome/98.0.4758.141 Electron/17.4.7 Safari/537.36" version="20.0.4" etag="NmLMp_gctD25SMoaPvLn" type="embed">
    <diagram id="fDO3eV0nf2LDiV2fwxjb" name="ページ1">
        <mxGraphModel dx="816" dy="1297" grid="1" gridSize="10" guides="1" tooltips="1" connect="1" arrows="1" fold="1" page="1" pageScale="1" pageWidth="827" pageHeight="1169" math="0" shadow="0">
            <root>
                <mxCell id="0"/>
                <mxCell id="1" parent="0"/>
                <mxCell id="2" value="メイン画面" style="shape=umlLifeline;perimeter=lifelinePerimeter;whiteSpace=wrap;html=1;container=1;collapsible=0;recursiveResize=0;outlineConnect=0;fillColor=#1ba1e2;fontColor=#ffffff;strokeColor=#006EAF;" vertex="1" parent="1">
                    <mxGeometry x="100" y="110" width="100" height="810" as="geometry"/>
                </mxCell>
                <mxCell id="11" value="レイアウトを決定する" style="html=1;verticalAlign=bottom;endArrow=block;fontSize=9;" edge="1" parent="2">
                    <mxGeometry x="0.005" y="10" width="80" relative="1" as="geometry">
                        <mxPoint x="-50" y="100" as="sourcePoint"/>
                        <mxPoint x="40" y="100" as="targetPoint"/>
                        <mxPoint as="offset"/>
                    </mxGeometry>
                </mxCell>
                <mxCell id="12" value="" style="html=1;points=[];perimeter=orthogonalPerimeter;fontSize=9;fillColor=#1ba1e2;fontColor=#ffffff;strokeColor=#006EAF;" vertex="1" parent="2">
                    <mxGeometry x="45" y="100" width="10" height="20" as="geometry"/>
                </mxCell>
                <mxCell id="33" value="作成ボタンを押す" style="html=1;verticalAlign=bottom;endArrow=block;fontSize=9;" edge="1" parent="2">
                    <mxGeometry width="80" relative="1" as="geometry">
                        <mxPoint x="-50" y="440" as="sourcePoint"/>
                        <mxPoint x="200" y="440" as="targetPoint"/>
                    </mxGeometry>
                </mxCell>
                <mxCell id="52" value="" style="html=1;points=[];perimeter=orthogonalPerimeter;fontSize=9;fillColor=#1ba1e2;fontColor=#ffffff;strokeColor=#006EAF;" vertex="1" parent="2">
                    <mxGeometry x="45" y="760" width="10" height="20" as="geometry"/>
                </mxCell>
                <mxCell id="3" value="Actor" style="shape=umlActor;verticalLabelPosition=bottom;verticalAlign=top;html=1;" vertex="1" parent="1">
                    <mxGeometry x="30" y="100" width="30" height="60" as="geometry"/>
                </mxCell>
                <mxCell id="4" value="レイアウト&lt;br&gt;決定画面" style="shape=umlLifeline;perimeter=lifelinePerimeter;whiteSpace=wrap;html=1;container=1;collapsible=0;recursiveResize=0;outlineConnect=0;fillColor=#1ba1e2;fontColor=#ffffff;strokeColor=#006EAF;" vertex="1" parent="1">
                    <mxGeometry x="260" y="110" width="100" height="810" as="geometry"/>
                </mxCell>
                <mxCell id="25" value="" style="html=1;points=[];perimeter=orthogonalPerimeter;fontSize=9;fillColor=#1ba1e2;fontColor=#ffffff;strokeColor=#006EAF;" vertex="1" parent="4">
                    <mxGeometry x="45" y="270" width="10" height="20" as="geometry"/>
                </mxCell>
                <mxCell id="27" value="" style="html=1;points=[];perimeter=orthogonalPerimeter;fontSize=9;fillColor=#1ba1e2;fontColor=#ffffff;strokeColor=#006EAF;" vertex="1" parent="4">
                    <mxGeometry x="45" y="330" width="10" height="20" as="geometry"/>
                </mxCell>
                <mxCell id="30" value="" style="html=1;points=[];perimeter=orthogonalPerimeter;fontSize=9;fillColor=#1ba1e2;fontColor=#ffffff;strokeColor=#006EAF;" vertex="1" parent="4">
                    <mxGeometry x="45" y="380" width="10" height="80" as="geometry"/>
                </mxCell>
                <mxCell id="5" value="レイアウト&lt;br&gt;確認画面" style="shape=umlLifeline;perimeter=lifelinePerimeter;whiteSpace=wrap;html=1;container=1;collapsible=0;recursiveResize=0;outlineConnect=0;fillColor=#1ba1e2;fontColor=#ffffff;strokeColor=#006EAF;" vertex="1" parent="1">
                    <mxGeometry x="410" y="110" width="100" height="810" as="geometry"/>
                </mxCell>
                <mxCell id="40" value="" style="html=1;points=[];perimeter=orthogonalPerimeter;fontSize=9;fillColor=#1ba1e2;fontColor=#ffffff;strokeColor=#006EAF;" vertex="1" parent="5">
                    <mxGeometry x="45" y="540" width="10" height="50" as="geometry"/>
                </mxCell>
                <mxCell id="44" value="" style="html=1;points=[];perimeter=orthogonalPerimeter;fontSize=9;fillColor=#1ba1e2;fontColor=#ffffff;strokeColor=#006EAF;" vertex="1" parent="5">
                    <mxGeometry x="45" y="620" width="10" height="50" as="geometry"/>
                </mxCell>
                <mxCell id="46" value="レイアウトを保存する&lt;br&gt;(レイアウト)" style="html=1;verticalAlign=bottom;endArrow=block;fontSize=9;" edge="1" parent="5" target="47">
                    <mxGeometry width="80" relative="1" as="geometry">
                        <mxPoint x="60" y="650" as="sourcePoint"/>
                        <mxPoint x="140" y="650" as="targetPoint"/>
                    </mxGeometry>
                </mxCell>
                <mxCell id="6" value="レイアウト決定&lt;br&gt;コントローラ" style="shape=umlLifeline;perimeter=lifelinePerimeter;whiteSpace=wrap;html=1;container=1;collapsible=0;recursiveResize=0;outlineConnect=0;fillColor=#60a917;fontColor=#ffffff;strokeColor=#2D7600;" vertex="1" parent="1">
                    <mxGeometry x="560" y="110" width="100" height="810" as="geometry"/>
                </mxCell>
                <mxCell id="13" value="" style="html=1;points=[];perimeter=orthogonalPerimeter;fontSize=9;fillColor=#1ba1e2;fontColor=#ffffff;strokeColor=#006EAF;" vertex="1" parent="6">
                    <mxGeometry x="45" y="120" width="10" height="220" as="geometry"/>
                </mxCell>
                <mxCell id="17" value="シリーズを取得する(ユーザーのID)" style="html=1;verticalAlign=bottom;endArrow=block;fontSize=9;" edge="1" parent="6">
                    <mxGeometry width="80" relative="1" as="geometry">
                        <mxPoint x="55" y="180" as="sourcePoint"/>
                        <mxPoint x="350" y="180" as="targetPoint"/>
                    </mxGeometry>
                </mxCell>
                <mxCell id="31" value="" style="html=1;points=[];perimeter=orthogonalPerimeter;fontSize=9;fillColor=#1ba1e2;fontColor=#ffffff;strokeColor=#006EAF;" vertex="1" parent="6">
                    <mxGeometry x="45" y="410" width="10" height="170" as="geometry"/>
                </mxCell>
                <mxCell id="43" value="レイアウトの作成(本棚, シリーズ, 本)" style="edgeStyle=orthogonalEdgeStyle;html=1;align=left;spacingLeft=2;endArrow=block;rounded=0;entryX=1;entryY=0;fontSize=9;" edge="1" parent="6">
                    <mxGeometry relative="1" as="geometry">
                        <mxPoint x="55" y="480" as="sourcePoint"/>
                        <Array as="points">
                            <mxPoint x="85" y="480"/>
                        </Array>
                        <mxPoint x="59.999999999999886" y="500" as="targetPoint"/>
                    </mxGeometry>
                </mxCell>
                <mxCell id="47" value="" style="html=1;points=[];perimeter=orthogonalPerimeter;fontSize=9;fillColor=#1ba1e2;fontColor=#ffffff;strokeColor=#006EAF;" vertex="1" parent="6">
                    <mxGeometry x="45" y="640" width="10" height="140" as="geometry"/>
                </mxCell>
                <mxCell id="51" value="メイン画面を表示()" style="html=1;verticalAlign=bottom;endArrow=block;fontSize=9;" edge="1" parent="6">
                    <mxGeometry width="80" relative="1" as="geometry">
                        <mxPoint x="41" y="760" as="sourcePoint"/>
                        <mxPoint x="-400" y="760" as="targetPoint"/>
                    </mxGeometry>
                </mxCell>
                <mxCell id="7" value="本棚台帳" style="shape=umlLifeline;perimeter=lifelinePerimeter;whiteSpace=wrap;html=1;container=1;collapsible=0;recursiveResize=0;outlineConnect=0;fillColor=#d80073;fontColor=#ffffff;strokeColor=#A50040;" vertex="1" parent="1">
                    <mxGeometry x="710" y="110" width="100" height="810" as="geometry"/>
                </mxCell>
                <mxCell id="16" value="" style="html=1;points=[];perimeter=orthogonalPerimeter;fontSize=9;fillColor=#1ba1e2;fontColor=#ffffff;strokeColor=#006EAF;" vertex="1" parent="7">
                    <mxGeometry x="45" y="140" width="10" height="20" as="geometry"/>
                </mxCell>
                <mxCell id="8" value="シリーズ台帳" style="shape=umlLifeline;perimeter=lifelinePerimeter;whiteSpace=wrap;html=1;container=1;collapsible=0;recursiveResize=0;outlineConnect=0;fillColor=#d80073;fontColor=#ffffff;strokeColor=#A50040;" vertex="1" parent="1">
                    <mxGeometry x="870" y="110" width="100" height="810" as="geometry"/>
                </mxCell>
                <mxCell id="18" value="" style="html=1;points=[];perimeter=orthogonalPerimeter;fontSize=9;fillColor=#1ba1e2;fontColor=#ffffff;strokeColor=#006EAF;" vertex="1" parent="8">
                    <mxGeometry x="45" y="180" width="10" height="20" as="geometry"/>
                </mxCell>
                <mxCell id="9" value="本台帳" style="shape=umlLifeline;perimeter=lifelinePerimeter;whiteSpace=wrap;html=1;container=1;collapsible=0;recursiveResize=0;outlineConnect=0;fillColor=#d80073;fontColor=#ffffff;strokeColor=#A50040;" vertex="1" parent="1">
                    <mxGeometry x="1020" y="110" width="100" height="810" as="geometry"/>
                </mxCell>
                <mxCell id="22" value="" style="html=1;points=[];perimeter=orthogonalPerimeter;fontSize=9;fillColor=#1ba1e2;fontColor=#ffffff;strokeColor=#006EAF;" vertex="1" parent="9">
                    <mxGeometry x="45" y="230" width="10" height="20" as="geometry"/>
                </mxCell>
                <mxCell id="10" value="" style="html=1;points=[];perimeter=orthogonalPerimeter;fillColor=#1ba1e2;fontColor=#ffffff;strokeColor=#006EAF;" vertex="1" parent="1">
                    <mxGeometry x="40" y="190" width="10" height="730" as="geometry"/>
                </mxCell>
                <mxCell id="14" value="レイアウトを決定する(ユーザーのID)" style="html=1;verticalAlign=bottom;endArrow=block;fontSize=9;" edge="1" parent="1">
                    <mxGeometry width="80" relative="1" as="geometry">
                        <mxPoint x="160" y="230" as="sourcePoint"/>
                        <mxPoint x="600" y="230" as="targetPoint"/>
                    </mxGeometry>
                </mxCell>
                <mxCell id="15" value="本棚を取得する(ユーザーのID)" style="html=1;verticalAlign=bottom;endArrow=block;fontSize=9;" edge="1" parent="1" target="16">
                    <mxGeometry width="80" relative="1" as="geometry">
                        <mxPoint x="620" y="250" as="sourcePoint"/>
                        <mxPoint x="750" y="250" as="targetPoint"/>
                    </mxGeometry>
                </mxCell>
                <mxCell id="21" value="本を取得する(ユーざーのID)" style="html=1;verticalAlign=bottom;endArrow=block;fontSize=9;" edge="1" parent="1">
                    <mxGeometry width="80" relative="1" as="geometry">
                        <mxPoint x="620" y="340" as="sourcePoint"/>
                        <mxPoint x="1060" y="340" as="targetPoint"/>
                    </mxGeometry>
                </mxCell>
                <mxCell id="24" value="本棚・シリーズ・本情報をセット(本棚, シリーズ, 本)" style="html=1;verticalAlign=bottom;endArrow=block;fontSize=9;" edge="1" parent="1" source="6" target="25">
                    <mxGeometry width="80" relative="1" as="geometry">
                        <mxPoint x="360" y="370" as="sourcePoint"/>
                        <mxPoint x="320" y="380" as="targetPoint"/>
                        <Array as="points">
                            <mxPoint x="510" y="380"/>
                        </Array>
                    </mxGeometry>
                </mxCell>
                <mxCell id="26" value="画面表示()" style="html=1;verticalAlign=bottom;endArrow=block;fontSize=9;" edge="1" parent="1" source="6">
                    <mxGeometry x="-0.0026" width="80" relative="1" as="geometry">
                        <mxPoint x="374" y="484.62" as="sourcePoint"/>
                        <mxPoint x="320" y="440" as="targetPoint"/>
                        <Array as="points">
                            <mxPoint x="540" y="440"/>
                            <mxPoint x="470" y="440"/>
                            <mxPoint x="450" y="440"/>
                            <mxPoint x="400" y="440"/>
                        </Array>
                        <mxPoint as="offset"/>
                    </mxGeometry>
                </mxCell>
                <mxCell id="28" value="&lt;br&gt;" style="edgeLabel;html=1;align=center;verticalAlign=middle;resizable=0;points=[];fontSize=9;" vertex="1" connectable="0" parent="26">
                    <mxGeometry x="-0.8358" y="3" relative="1" as="geometry">
                        <mxPoint as="offset"/>
                    </mxGeometry>
                </mxCell>
                <mxCell id="29" value="レイアウトしたい本棚・シリーズ・本をチェック&lt;br&gt;(本棚, シリーズ, 本)" style="html=1;verticalAlign=bottom;endArrow=block;fontSize=9;" edge="1" parent="1" target="30">
                    <mxGeometry width="80" relative="1" as="geometry">
                        <mxPoint x="50" y="494.6" as="sourcePoint"/>
                        <mxPoint x="240" y="495" as="targetPoint"/>
                    </mxGeometry>
                </mxCell>
                <mxCell id="32" value="本棚・シリーズ・本を選択(本棚, シリーズ, 本)" style="html=1;verticalAlign=bottom;endArrow=block;fontSize=9;entryX=-0.033;entryY=-0.006;entryDx=0;entryDy=0;entryPerimeter=0;" edge="1" parent="1" target="31">
                    <mxGeometry width="80" relative="1" as="geometry">
                        <mxPoint x="310" y="519.6" as="sourcePoint"/>
                        <mxPoint x="600" y="520" as="targetPoint"/>
                    </mxGeometry>
                </mxCell>
                <mxCell id="34" value="適切に選択されているか確認()" style="html=1;verticalAlign=bottom;endArrow=block;fontSize=9;" edge="1" parent="1" target="31">
                    <mxGeometry width="80" relative="1" as="geometry">
                        <mxPoint x="310" y="570" as="sourcePoint"/>
                        <mxPoint x="390" y="570" as="targetPoint"/>
                    </mxGeometry>
                </mxCell>
                <mxCell id="39" value="作成されたレイアウトのセット&lt;br&gt;(レイアウト)" style="html=1;verticalAlign=bottom;endArrow=block;fontSize=9;exitX=-0.135;exitY=0.668;exitDx=0;exitDy=0;exitPerimeter=0;" edge="1" parent="1">
                    <mxGeometry x="0.1021" y="-9" width="80" relative="1" as="geometry">
                        <mxPoint x="603.65" y="649.1999999999998" as="sourcePoint"/>
                        <mxPoint x="470" y="649" as="targetPoint"/>
                        <Array as="points">
                            <mxPoint x="560" y="649"/>
                        </Array>
                        <mxPoint as="offset"/>
                    </mxGeometry>
                </mxCell>
                <mxCell id="41" value="レイアウト確認画面の表示" style="html=1;verticalAlign=bottom;endArrow=block;fontSize=9;entryX=1.051;entryY=0.509;entryDx=0;entryDy=0;entryPerimeter=0;" edge="1" parent="1">
                    <mxGeometry width="80" relative="1" as="geometry">
                        <mxPoint x="609.5" y="689" as="sourcePoint"/>
                        <mxPoint x="465.51" y="689.7199999999998" as="targetPoint"/>
                        <Array as="points">
                            <mxPoint x="560" y="689"/>
                            <mxPoint x="490" y="689"/>
                        </Array>
                    </mxGeometry>
                </mxCell>
                <mxCell id="45" value="レイアウトを保存する(レイアウト)" style="html=1;verticalAlign=bottom;endArrow=block;fontSize=9;" edge="1" parent="1">
                    <mxGeometry width="80" relative="1" as="geometry">
                        <mxPoint x="50" y="740" as="sourcePoint"/>
                        <mxPoint x="450" y="740" as="targetPoint"/>
                    </mxGeometry>
                </mxCell>
                <mxCell id="48" value="レイアウト台帳" style="shape=umlLifeline;perimeter=lifelinePerimeter;whiteSpace=wrap;html=1;container=1;collapsible=0;recursiveResize=0;outlineConnect=0;fontSize=9;fillColor=#d80073;fontColor=#ffffff;strokeColor=#A50040;" vertex="1" parent="1">
                    <mxGeometry x="1170" y="110" width="100" height="810" as="geometry"/>
                </mxCell>
                <mxCell id="50" value="" style="html=1;points=[];perimeter=orthogonalPerimeter;fontSize=9;fillColor=#1ba1e2;fontColor=#ffffff;strokeColor=#006EAF;" vertex="1" parent="48">
                    <mxGeometry x="45" y="680" width="10" height="30" as="geometry"/>
                </mxCell>
                <mxCell id="49" value="レイアウトを保存する(レイアウト)" style="html=1;verticalAlign=bottom;endArrow=block;fontSize=9;" edge="1" parent="1">
                    <mxGeometry width="80" relative="1" as="geometry">
                        <mxPoint x="610" y="790" as="sourcePoint"/>
                        <mxPoint x="1210" y="790" as="targetPoint"/>
                    </mxGeometry>
                </mxCell>
            </root>
        </mxGraphModel>
    </diagram>
</mxfile>